{
  "accessors": [
    {
      "bufferView": 0,
      "componentType": 5126,
      "count": 2271,
      "max": [
        1.2845919547578692,
        0.7882462358857864,
        0.03867728075556443
      ],
      "min": [
        -1.2893295364100597,
        -0.7892378036540898,
        -2.5372229346489834
      ],
      "type": "VEC3"
    },
    {
      "bufferView": 1,
      "componentType": 5123,
      "count": 13614,
      "max": [
        2270
      ],
      "min": [
        0
      ],
      "type": "SCALAR"
    },
    {
      "bufferView": 2,
      "componentType": 5126,
      "count": 507,
      "max": [
        1.2879671929403378,
        0.7880422606518068,
        -1.2099999999999982
      ],
      "min": [
        -1.2879671929403382,
        -0.7880422606518064,
        -1.2823606797749978
      ],
      "type": "VEC3"
    },
    {
      "bufferView": 3,
      "componentType": 5123,
      "count": 3030,
      "max": [
        506
      ],
      "min": [
        0
      ],
      "type": "SCALAR"
    },
    {
      "bufferView": 4,
      "componentType": 5126,
      "count": 500,
      "max": [
        1.0380422606518065,
        0.5380422606518059,
        -0.46
      ],
      "min": [
        -1.0380422606518065,
        -1.5380422606518065,
        -0.5323606797749979
      ],
      "type": "VEC3"
    },
    {
      "bufferView": 5,
      "componentType": 5123,
      "count": 3000,
      "max": [
        499
      ],
      "min": [
        0
      ],
      "type": "SCALAR"
    },
    {
      "bufferView": 6,
      "componentType": 5126,
      "count": 500,
      "max": [
        1.0380422606518065,
        1.538042260651806,
        -0.96
      ],
      "min": [
        -1.0380422606518065,
        -0.5380422606518063,
        -1.0323606797749978
      ],
      "type": "VEC3"
    },
    {
      "bufferView": 7,
      "componentType": 5123,
      "count": 3000,
      "max": [
        499
      ],
      "min": [
        0
      ],
      "type": "SCALAR"
    },
    {
      "bufferView": 8,
      "componentType": 5126,
      "count": 500,
      "max": [
        0.0380422606518074,
        1.0380422606518067,
        -0.71
      ],
      "min": [
        -2.0380422606518067,
        -1.038042260651807,
        -0.7823606797749979
      ],
      "type": "VEC3"
    },
    {
      "bufferView": 9,
      "componentType": 5123,
      "count": 3000,
      "max": [
        499
      ],
      "min": [
        0
      ],
      "type": "SCALAR"
    }
  ],
  "asset": {
    "generator": "Created with the Wolfram Language : www.wolfram.com",
    "version": "2.0"
  },
  "bufferViews": [
    {
      "buffer": 0,
      "byteLength": 27252,
      "target": 34962
    },
    {
      "buffer": 1,
      "byteLength": 27228,
      "target": 34963
    },
    {
      "buffer": 2,
      "byteLength": 6084,
      "target": 34962
    },
    {
      "buffer": 3,
      "byteLength": 6060,
      "target": 34963
    },
    {
      "buffer": 4,
      "byteLength": 6000,
      "target": 34962
    },
    {
      "buffer": 5,
      "byteLength": 6000,
      "target": 34963
    },
    {
      "buffer": 6,
      "byteLength": 6000,
      "target": 34962
    },
    {
      "buffer": 7,
      "byteLength": 6000,
      "target": 34963
    },
    {
      "buffer": 8,
      "byteLength": 6000,
      "target": 34962
    },
    {
      "buffer": 9,
      "byteLength": 6000,
      "target": 34963
    }
  ],
  "buffers": [
    {
      "byteLength": 27252,
      "uri": "data:application/octet-stream;base64,"
    },
    {
      "byteLength": 27228,
      "uri": "data:application/octet-stream;base64,"
    },
    {
      "byteLength": 6084,
      "uri": "data:application/octet-stream;base64,"
    },
    {
      "byteLength": 6060,
      "uri": "data:application/octet-stream;base64,"
    },
    {
      "byteLength": 6000,
      "uri": "data:application/octet-stream;base64,"
    },
    {
      "byteLength": 6000,
      "uri": "data:application/octet-stream;base64,"
    },
    {
      "byteLength": 6000,
      "uri": "data:application/octet-stream;base64,"
    },
    {
      "byteLength": 6000,
      "uri": "data:application/octet-stream;base64,"
    },
    {
      "byteLength": 6000,
      "uri": "data:application/octet-stream;base64,"
    },
    {
      "byteLength": 6000,
      "uri": "data:application/octet-stream;base64,"
    }
  ],
  "extensions": {
    "KHR_lights_punctual": {
      "lights": [
        {
          "color": [
            1.0,
            0.0,
            0.0
          ],
          "intensity": 1.0,
          "type": "directional"
        }
      ]
    }
  },
  "extensionsUsed": [
    "KHR_lights_punctual"
  ],
  "materials": [
    {
      "doubleSided": true,
      "pbrMetallicRoughness": {
        "baseColorFactor": [
          1.0,
          0.3,
          0.3,
          1.0
        ]
      }
    },
    {
      "doubleSided": true,
      "pbrMetallicRoughness": {
        "baseColorFactor": [
          0.4,
          0.4,
          1.0,
          1.0
        ]
      }
    },
    {
      "doubleSided": true,
      "pbrMetallicRoughness": {
        "baseColorFactor": [
          0.0,
          0.6,
          0.0,
          1.0
        ]
      }
    },
    {
      "doubleSided": true,
      "pbrMetallicRoughness": {
        "baseColorFactor": [
          0.65,
          0.3,
          0.65,
          1.0
        ]
      }
    },
    {
      "doubleSided": true,
      "pbrMetallicRoughness": {
        "baseColorFactor": [
          0.5,
          1.0,
          0.5,
          1.0
        ]
      }
    }
  ],
  "meshes": [
    {
      "primitives": [
        {
          "attributes": {
            "POSITION": 0
          },
          "indices": 1,
          "material": 0,
          "mode": 4
        }
      ]
    },
    {
      "primitives": [
        {
          "attributes": {
            "POSITION": 2
          },
          "indices": 3,
          "material": 1,
          "mode": 4
        }
      ]
    },
    {
      "primitives": [
        {
          "attributes": {
            "POSITION": 4
          },
          "indices": 5,
          "material": 2,
          "mode": 4
        }
      ]
    },
    {
      "primitives": [
        {
          "attributes": {
            "POSITION": 6
          },
          "indices": 7,
          "material": 3,
          "mode": 4
        }
      ]
    },
    {
      "primitives": [
        {
          "attributes": {
            "POSITION": 8
          },
          "indices": 9,
          "material": 4,
          "mode": 4
        }
      ]
    }
  ],
  "nodes": [
    {
      "children": [
        1
      ],
      "extensions": {
        "KHR_lights_punctual": {
          "light": 0
        }
      },
      "mesh": 0
    },
    {
      "children": [
        2
      ],
      "mesh": 1
    },
    {
      "children": [
        3
      ],
      "mesh": 2
    },
    {
      "children": [
        4
      ],
      "mesh": 3
    },
    {
      "mesh": 4
    }
  ],
  "scenes": [
    {
      "nodes": [
        0
      ]
    }
  ]
}
